<svg width="476.3" height="93.803" viewBox="0 0 476.3 93.803" xmlns="http://www.w3.org/2000/svg"><g id="svgGroup" stroke-linecap="round" fill-rule="evenodd" font-size="9pt" stroke="#65d865" stroke-width="0.25mm" fill="#65d865" style="stroke:#65d865;stroke-width:0.25mm;fill:black"><path d="M 215.7 34.402 L 214.4 36.002 A 33.773 33.773 0 0 0 211.509 33.99 Q 209.995 33.057 208.552 32.429 A 18.687 18.687 0 0 0 207.75 32.102 A 17.625 17.625 0 0 0 204.136 31.17 Q 202.385 30.902 200.4 30.902 A 19.402 19.402 0 0 0 196.024 31.37 A 13.839 13.839 0 0 0 190.65 33.852 Q 186.892 36.731 186.802 41.469 A 12.297 12.297 0 0 0 186.8 41.702 A 10.278 10.278 0 0 0 187.234 44.766 A 7.937 7.937 0 0 0 189.95 48.702 Q 192.525 50.745 198.275 52.522 A 71.282 71.282 0 0 0 201 53.302 Q 207.1 55.002 210.55 56.802 A 14.608 14.608 0 0 1 213.04 58.421 A 10.333 10.333 0 0 1 215.55 61.352 A 11.124 11.124 0 0 1 216.656 64.243 Q 217.1 66.1 217.1 68.402 A 14.14 14.14 0 0 1 216.135 73.709 A 12.991 12.991 0 0 1 212.4 78.802 Q 207.7 82.802 200.2 82.802 A 31.031 31.031 0 0 1 195.751 82.499 Q 193.338 82.149 191.294 81.395 A 18.244 18.244 0 0 1 190.55 81.102 A 28.89 28.89 0 0 1 185.099 78.055 A 35.139 35.139 0 0 1 182.7 76.202 L 184 74.702 A 32.281 32.281 0 0 0 187.458 77.245 A 23.565 23.565 0 0 0 191.35 79.252 A 19.152 19.152 0 0 0 195.078 80.286 Q 196.832 80.598 198.836 80.676 A 35.128 35.128 0 0 0 200.2 80.702 Q 206.6 80.702 210.7 77.452 A 10.582 10.582 0 0 0 214.736 69.812 A 15.146 15.146 0 0 0 214.8 68.402 A 17.568 17.568 0 0 0 214.64 65.96 Q 214.46 64.674 214.074 63.608 A 8.567 8.567 0 0 0 213.45 62.252 A 8.756 8.756 0 0 0 211.522 59.966 Q 210.62 59.195 209.445 58.54 A 15.951 15.951 0 0 0 209 58.302 Q 206.2 56.856 201.115 55.411 A 95.579 95.579 0 0 0 200 55.102 A 60.083 60.083 0 0 1 195.659 53.801 Q 190.602 52.058 188.05 49.902 A 9.826 9.826 0 0 1 184.572 43.14 A 13.956 13.956 0 0 1 184.5 41.702 A 11.07 11.07 0 0 1 188.109 33.313 A 14.387 14.387 0 0 1 189.05 32.502 Q 193.6 28.902 200.3 28.902 A 26.889 26.889 0 0 1 204.791 29.261 A 20.848 20.848 0 0 1 208.55 30.252 A 23.975 23.975 0 0 1 213.221 32.612 A 29.949 29.949 0 0 1 215.7 34.402 Z M 291.3 34.402 L 290 36.002 A 33.773 33.773 0 0 0 287.109 33.99 Q 285.595 33.057 284.152 32.429 A 18.687 18.687 0 0 0 283.35 32.102 A 17.625 17.625 0 0 0 279.736 31.17 Q 277.985 30.902 276 30.902 A 19.402 19.402 0 0 0 271.624 31.37 A 13.839 13.839 0 0 0 266.25 33.852 Q 262.492 36.731 262.402 41.469 A 12.297 12.297 0 0 0 262.4 41.702 A 10.278 10.278 0 0 0 262.834 44.766 A 7.937 7.937 0 0 0 265.55 48.702 Q 268.125 50.745 273.875 52.522 A 71.282 71.282 0 0 0 276.6 53.302 Q 282.7 55.002 286.15 56.802 A 14.608 14.608 0 0 1 288.64 58.421 A 10.333 10.333 0 0 1 291.15 61.352 A 11.124 11.124 0 0 1 292.256 64.243 Q 292.7 66.1 292.7 68.402 A 14.14 14.14 0 0 1 291.735 73.709 A 12.991 12.991 0 0 1 288 78.802 Q 283.3 82.802 275.8 82.802 A 31.031 31.031 0 0 1 271.351 82.499 Q 268.938 82.149 266.894 81.395 A 18.244 18.244 0 0 1 266.15 81.102 A 28.89 28.89 0 0 1 260.699 78.055 A 35.139 35.139 0 0 1 258.3 76.202 L 259.6 74.702 A 32.281 32.281 0 0 0 263.058 77.245 A 23.565 23.565 0 0 0 266.95 79.252 A 19.152 19.152 0 0 0 270.678 80.286 Q 272.432 80.598 274.436 80.676 A 35.128 35.128 0 0 0 275.8 80.702 Q 282.2 80.702 286.3 77.452 A 10.582 10.582 0 0 0 290.336 69.812 A 15.146 15.146 0 0 0 290.4 68.402 A 17.568 17.568 0 0 0 290.24 65.96 Q 290.06 64.674 289.674 63.608 A 8.567 8.567 0 0 0 289.05 62.252 A 8.756 8.756 0 0 0 287.122 59.966 Q 286.22 59.195 285.045 58.54 A 15.951 15.951 0 0 0 284.6 58.302 Q 281.8 56.856 276.715 55.411 A 95.579 95.579 0 0 0 275.6 55.102 A 60.083 60.083 0 0 1 271.259 53.801 Q 266.202 52.058 263.65 49.902 A 9.826 9.826 0 0 1 260.172 43.14 A 13.956 13.956 0 0 1 260.1 41.702 A 11.07 11.07 0 0 1 263.709 33.313 A 14.387 14.387 0 0 1 264.65 32.502 Q 269.2 28.902 275.9 28.902 A 26.889 26.889 0 0 1 280.391 29.261 A 20.848 20.848 0 0 1 284.15 30.252 A 23.975 23.975 0 0 1 288.821 32.612 A 29.949 29.949 0 0 1 291.3 34.402 Z M 468.3 10.302 L 468.3 38.602 A 9.244 9.244 0 0 0 468.739 41.581 Q 470.175 45.802 476.3 45.802 L 476.3 48.002 A 12.95 12.95 0 0 0 473.281 48.322 Q 469.242 49.294 468.478 53.214 A 10.406 10.406 0 0 0 468.3 55.202 L 468.3 83.502 A 15.334 15.334 0 0 1 467.821 87.515 Q 466.573 92.107 462.068 93.345 A 14.242 14.242 0 0 1 458.3 93.802 L 458.3 92.002 Q 462.5 92.002 464.4 89.852 Q 466.3 87.702 466.3 83.202 L 466.3 56.102 A 17.899 17.899 0 0 1 466.442 53.76 Q 466.806 51.011 468.1 49.502 A 6.462 6.462 0 0 1 470.227 47.906 Q 471.163 47.452 472.343 47.176 A 14.996 14.996 0 0 1 473.9 46.902 A 13.949 13.949 0 0 1 471.667 46.448 Q 470.491 46.1 469.59 45.552 A 6.152 6.152 0 0 1 468.1 44.302 Q 466.334 42.242 466.301 37.872 A 22.157 22.157 0 0 1 466.3 37.702 L 466.3 10.602 Q 466.3 7.854 465.592 5.983 A 6.511 6.511 0 0 0 464.4 3.952 A 5.76 5.76 0 0 0 462.02 2.373 Q 461.073 2.025 459.899 1.889 A 13.904 13.904 0 0 0 458.3 1.802 L 458.3 0.002 A 13.929 13.929 0 0 1 462.314 0.529 Q 468.3 2.333 468.3 10.302 Z M 18 0.002 L 18 1.802 Q 13.8 1.802 11.9 3.952 Q 10 6.102 10 10.602 L 10 37.702 A 17.899 17.899 0 0 1 9.858 40.043 Q 9.494 42.792 8.2 44.302 A 6.462 6.462 0 0 1 6.073 45.898 Q 5.137 46.351 3.957 46.627 A 14.996 14.996 0 0 1 2.4 46.902 A 13.949 13.949 0 0 1 4.633 47.355 Q 5.809 47.704 6.71 48.252 A 6.152 6.152 0 0 1 8.2 49.502 Q 9.966 51.562 9.999 55.931 A 22.157 22.157 0 0 1 10 56.102 L 10 83.202 Q 10 85.949 10.708 87.82 A 6.511 6.511 0 0 0 11.9 89.852 A 5.76 5.76 0 0 0 14.28 91.43 Q 15.227 91.778 16.401 91.914 A 13.904 13.904 0 0 0 18 92.002 L 18 93.802 A 13.929 13.929 0 0 1 13.986 93.274 Q 8 91.471 8 83.502 L 8 55.202 A 9.244 9.244 0 0 0 7.561 52.222 Q 6.125 48.002 0 48.002 L 0 45.802 A 12.95 12.95 0 0 0 3.019 45.481 Q 7.058 44.509 7.822 40.589 A 10.406 10.406 0 0 0 8 38.602 L 8 10.302 A 15.334 15.334 0 0 1 8.479 6.288 Q 9.727 1.696 14.232 0.458 A 14.242 14.242 0 0 1 18 0.002 Z M 442.8 81.202 L 442.2 82.802 A 10.129 10.129 0 0 1 440.114 81.876 A 7.011 7.011 0 0 1 437.7 79.552 Q 436.3 77.302 436.2 72.702 Q 430.789 82.29 420.421 82.776 A 23.946 23.946 0 0 1 419.3 82.802 A 20.435 20.435 0 0 1 414.557 82.282 A 13.658 13.658 0 0 1 407.85 78.602 A 14.07 14.07 0 0 1 404.028 71.118 A 20.112 20.112 0 0 1 403.7 67.402 A 17.686 17.686 0 0 1 404.442 62.145 A 13.644 13.644 0 0 1 409.2 55.302 A 18.969 18.969 0 0 1 415.85 52.027 Q 419.51 51.002 424.1 51.002 L 435.9 51.002 L 435.9 44.802 A 25.593 25.593 0 0 0 435.631 40.958 Q 435.333 38.998 434.703 37.424 A 10.449 10.449 0 0 0 432.85 34.352 A 8.954 8.954 0 0 0 429.387 31.993 Q 427.933 31.413 426.108 31.141 A 23.872 23.872 0 0 0 422.6 30.902 Q 417.407 30.902 411.06 33.143 A 57.175 57.175 0 0 0 408.3 34.202 L 407.6 32.302 Q 414.697 29.359 420.745 28.963 A 28.399 28.399 0 0 1 422.6 28.902 Q 427.516 28.902 430.812 30.357 A 10.847 10.847 0 0 1 434.4 32.852 A 12.464 12.464 0 0 1 437.086 37.491 Q 437.72 39.383 437.957 41.688 A 28.439 28.439 0 0 1 438.1 44.602 L 438.1 70.802 Q 438.1 75.902 439.15 78.102 Q 440.2 80.302 442.8 81.202 Z M 146.9 29.902 L 149.3 29.902 L 131.2 81.802 L 128.3 81.802 L 109.2 29.902 L 111.7 29.902 L 129.7 79.902 L 146.9 29.902 Z M 392.4 29.902 L 394.8 29.902 L 376.7 81.802 L 373.8 81.802 L 354.7 29.902 L 357.2 29.902 L 375.2 79.902 L 392.4 29.902 Z M 72.3 57.202 L 36 57.202 Q 36.262 64.803 38.478 69.978 A 19.259 19.259 0 0 0 41.35 74.752 A 15.92 15.92 0 0 0 52.909 80.649 A 20.913 20.913 0 0 0 54.4 80.702 A 24.366 24.366 0 0 0 58.294 80.405 A 17.971 17.971 0 0 0 62.15 79.352 A 21.593 21.593 0 0 0 65.346 77.723 Q 66.842 76.807 68.385 75.583 A 38.107 38.107 0 0 0 69.1 75.002 L 70.3 76.702 Q 66.7 79.702 62.95 81.252 A 20.134 20.134 0 0 1 57.99 82.565 A 26.269 26.269 0 0 1 54.4 82.802 A 20.793 20.793 0 0 1 47.325 81.646 A 17.919 17.919 0 0 1 39.3 75.802 Q 33.7 68.802 33.7 56.302 Q 33.7 48.492 35.818 42.584 A 29.331 29.331 0 0 1 36.15 41.702 A 24.996 24.996 0 0 1 38.686 36.832 A 18.688 18.688 0 0 1 43.1 32.202 A 17.073 17.073 0 0 1 52.672 28.922 A 21.202 21.202 0 0 1 53.6 28.902 A 20.816 20.816 0 0 1 59.462 29.681 A 15.219 15.219 0 0 1 67.7 35.502 Q 71.715 41.022 72.372 49.831 A 48.053 48.053 0 0 1 72.5 53.402 Q 72.5 55.002 72.3 57.202 Z M 90.6 74.602 L 90.6 8.502 L 92.8 8.202 L 92.8 74.502 A 11.008 11.008 0 0 0 93.019 76.803 Q 93.74 80.163 96.844 80.627 A 7.144 7.144 0 0 0 97.9 80.702 Q 100 80.702 101.9 79.902 L 102.5 81.802 A 17.177 17.177 0 0 1 100.47 82.449 Q 99.408 82.712 98.445 82.779 A 9.323 9.323 0 0 1 97.8 82.802 A 8.592 8.592 0 0 1 95.515 82.513 A 6.328 6.328 0 0 1 92.55 80.752 Q 90.6 78.702 90.6 74.602 Z M 336.1 74.602 L 336.1 8.502 L 338.3 8.202 L 338.3 74.502 A 11.008 11.008 0 0 0 338.519 76.803 Q 339.24 80.163 342.344 80.627 A 7.144 7.144 0 0 0 343.4 80.702 Q 345.5 80.702 347.4 79.902 L 348 81.802 A 17.177 17.177 0 0 1 345.97 82.449 Q 344.908 82.712 343.945 82.779 A 9.323 9.323 0 0 1 343.3 82.802 A 8.592 8.592 0 0 1 341.015 82.513 A 6.328 6.328 0 0 1 338.05 80.752 Q 336.1 78.702 336.1 74.602 Z M 163.4 29.902 L 165.6 29.902 L 165.6 81.802 L 163.4 81.802 L 163.4 29.902 Z M 310.8 29.902 L 313 29.902 L 313 81.802 L 310.8 81.802 L 310.8 29.902 Z M 70.3 55.302 L 70.3 52.602 A 38.425 38.425 0 0 0 69.81 46.268 Q 69.228 42.793 67.957 39.983 A 19.428 19.428 0 0 0 66.15 36.802 A 13.506 13.506 0 0 0 56.293 31.049 A 20.343 20.343 0 0 0 53.8 30.902 A 15.234 15.234 0 0 0 42.207 35.859 A 19.311 19.311 0 0 0 41.1 37.152 Q 36.2 43.402 36 55.302 L 70.3 55.302 Z M 435.9 69.902 L 435.9 53.002 L 424.5 53.002 A 32.964 32.964 0 0 0 419.234 53.395 Q 416.452 53.846 414.207 54.814 A 15.389 15.389 0 0 0 410.95 56.702 A 12.025 12.025 0 0 0 406.257 64.993 A 17.872 17.872 0 0 0 406.1 67.402 Q 406.1 73.602 409.65 77.152 A 11.8 11.8 0 0 0 415.695 80.346 A 17.354 17.354 0 0 0 419.3 80.702 Q 425.2 80.702 429.2 77.952 A 18.575 18.575 0 0 0 433.391 73.92 A 25.733 25.733 0 0 0 435.9 69.902 Z M 165.134 9.473 A 2.674 2.674 0 0 0 164.5 9.402 Q 163.6 9.402 163.05 10.002 Q 162.5 10.602 162.5 11.402 A 2.308 2.308 0 0 0 162.5 11.427 A 1.832 1.832 0 0 0 163.05 12.752 A 1.803 1.803 0 0 0 163.85 13.218 A 2.391 2.391 0 0 0 164.5 13.302 A 3.516 3.516 0 0 0 164.599 13.3 Q 164.94 13.291 165.225 13.214 A 1.796 1.796 0 0 0 166.05 12.752 A 1.862 1.862 0 0 0 166.438 12.197 A 1.917 1.917 0 0 0 166.6 11.402 Q 166.6 10.602 166.05 10.002 A 1.783 1.783 0 0 0 165.134 9.473 Z M 312.534 9.473 A 2.674 2.674 0 0 0 311.9 9.402 Q 311 9.402 310.45 10.002 Q 309.9 10.602 309.9 11.402 A 2.308 2.308 0 0 0 309.9 11.427 A 1.832 1.832 0 0 0 310.45 12.752 A 1.803 1.803 0 0 0 311.25 13.218 A 2.391 2.391 0 0 0 311.9 13.302 A 3.516 3.516 0 0 0 311.999 13.3 Q 312.34 13.291 312.625 13.214 A 1.796 1.796 0 0 0 313.45 12.752 A 1.862 1.862 0 0 0 313.838 12.197 A 1.917 1.917 0 0 0 314 11.402 Q 314 10.602 313.45 10.002 A 1.783 1.783 0 0 0 312.534 9.473 Z" vector-effect="non-scaling-stroke"/></g></svg>