<svg width="440.9" height="93.804" viewBox="0 0 440.9 93.804" xmlns="http://www.w3.org/2000/svg"><g id="svgGroup" stroke-linecap="round" fill-rule="evenodd" font-size="9pt" stroke="#65d865" stroke-width="0.25mm" fill="#65d865" style="stroke:#65d865;stroke-width:0.25mm;fill:black"><path d="M 195.1 34.402 L 193.8 36.002 Q 191.179 33.643 188.673 32.429 A 15.108 15.108 0 0 0 187.95 32.102 Q 185.229 30.956 181.552 30.904 A 24.891 24.891 0 0 0 181.2 30.902 A 15.583 15.583 0 0 0 177.225 31.384 A 11.611 11.611 0 0 0 172.5 33.852 A 9.685 9.685 0 0 0 169.13 40.8 A 13.373 13.373 0 0 0 169.1 41.702 A 10.475 10.475 0 0 0 169.501 44.674 A 8.007 8.007 0 0 0 171.95 48.502 A 14.534 14.534 0 0 0 174.008 49.977 Q 176.878 51.714 181.8 53.402 Q 188.761 55.722 192.14 58.374 A 12.854 12.854 0 0 1 193.15 59.252 Q 196.091 62.103 196.371 67.288 A 20.711 20.711 0 0 1 196.4 68.402 A 15.336 15.336 0 0 1 195.626 73.375 A 12.964 12.964 0 0 1 192.05 78.802 A 14.985 14.985 0 0 1 183.625 82.637 A 20.266 20.266 0 0 1 181 82.802 A 24.946 24.946 0 0 1 176.805 82.467 Q 174.4 82.056 172.396 81.143 A 15.443 15.443 0 0 1 172.2 81.052 Q 168.5 79.302 165.2 76.202 L 166.5 74.802 Q 169.69 77.701 172.833 79.2 A 19.293 19.293 0 0 0 173.05 79.302 Q 175.868 80.603 179.777 80.775 A 27.7 27.7 0 0 0 181 80.802 A 16.675 16.675 0 0 0 185.203 80.298 A 12.312 12.312 0 0 0 190.45 77.502 Q 194.1 74.202 194.1 68.402 A 17.773 17.773 0 0 0 193.945 65.982 Q 193.669 63.975 192.9 62.502 A 8.557 8.557 0 0 0 191.094 60.181 Q 190.26 59.41 189.168 58.741 A 15.177 15.177 0 0 0 188.85 58.552 A 26.638 26.638 0 0 0 186.829 57.506 Q 184.693 56.503 181.702 55.448 A 91.183 91.183 0 0 0 180.7 55.102 A 54.293 54.293 0 0 1 176.825 53.656 Q 172.314 51.758 170.05 49.602 A 9.998 9.998 0 0 1 166.993 43.33 A 13.847 13.847 0 0 1 166.9 41.702 A 12.447 12.447 0 0 1 167.862 36.746 A 11.825 11.825 0 0 1 171 32.502 Q 175.1 28.902 181.1 28.902 Q 185.3 28.902 188.6 30.252 A 20.951 20.951 0 0 1 192.382 32.297 A 27.499 27.499 0 0 1 195.1 34.402 Z M 273.6 34.402 L 272.3 36.002 Q 269.679 33.643 267.173 32.429 A 15.108 15.108 0 0 0 266.45 32.102 Q 263.729 30.956 260.052 30.904 A 24.891 24.891 0 0 0 259.7 30.902 A 15.583 15.583 0 0 0 255.725 31.384 A 11.611 11.611 0 0 0 251 33.852 A 9.685 9.685 0 0 0 247.63 40.8 A 13.373 13.373 0 0 0 247.6 41.702 A 10.475 10.475 0 0 0 248.001 44.674 A 8.007 8.007 0 0 0 250.45 48.502 A 14.534 14.534 0 0 0 252.508 49.977 Q 255.378 51.714 260.3 53.402 Q 267.261 55.722 270.64 58.374 A 12.854 12.854 0 0 1 271.65 59.252 Q 274.591 62.103 274.871 67.288 A 20.711 20.711 0 0 1 274.9 68.402 A 15.336 15.336 0 0 1 274.126 73.375 A 12.964 12.964 0 0 1 270.55 78.802 A 14.985 14.985 0 0 1 262.125 82.637 A 20.266 20.266 0 0 1 259.5 82.802 A 24.946 24.946 0 0 1 255.305 82.467 Q 252.9 82.056 250.896 81.143 A 15.443 15.443 0 0 1 250.7 81.052 Q 247 79.302 243.7 76.202 L 245 74.802 Q 248.19 77.701 251.333 79.2 A 19.293 19.293 0 0 0 251.55 79.302 Q 254.368 80.603 258.277 80.775 A 27.7 27.7 0 0 0 259.5 80.802 A 16.675 16.675 0 0 0 263.703 80.298 A 12.312 12.312 0 0 0 268.95 77.502 Q 272.6 74.202 272.6 68.402 A 17.773 17.773 0 0 0 272.445 65.982 Q 272.169 63.975 271.4 62.502 A 8.557 8.557 0 0 0 269.594 60.181 Q 268.76 59.41 267.668 58.741 A 15.177 15.177 0 0 0 267.35 58.552 A 26.638 26.638 0 0 0 265.329 57.506 Q 263.193 56.503 260.202 55.448 A 91.183 91.183 0 0 0 259.2 55.102 A 54.293 54.293 0 0 1 255.325 53.656 Q 250.814 51.758 248.55 49.602 A 9.998 9.998 0 0 1 245.493 43.33 A 13.847 13.847 0 0 1 245.4 41.702 A 12.447 12.447 0 0 1 246.362 36.746 A 11.825 11.825 0 0 1 249.5 32.502 Q 253.6 28.902 259.6 28.902 Q 263.8 28.902 267.1 30.252 A 20.951 20.951 0 0 1 270.882 32.297 A 27.499 27.499 0 0 1 273.6 34.402 Z M 433.8 10.202 L 433.8 38.602 A 12.685 12.685 0 0 0 433.942 40.573 Q 434.306 42.88 435.6 44.102 A 5.718 5.718 0 0 0 437.784 45.363 Q 439.123 45.802 440.9 45.802 L 440.9 48.002 A 11.495 11.495 0 0 0 438.879 48.168 Q 437.778 48.365 436.912 48.795 A 5.381 5.381 0 0 0 435.6 49.702 A 5.081 5.081 0 0 0 434.354 51.632 Q 433.8 53.094 433.8 55.202 L 433.8 83.502 A 16.794 16.794 0 0 1 433.391 87.389 Q 431.859 93.802 424.6 93.802 L 424.6 92.002 A 10.842 10.842 0 0 0 426.621 91.826 Q 428.891 91.395 430.1 89.902 Q 431.767 87.842 431.799 83.57 A 22.437 22.437 0 0 0 431.8 83.402 L 431.8 55.602 A 17.741 17.741 0 0 1 431.929 53.383 Q 432.261 50.757 433.45 49.352 A 6.109 6.109 0 0 1 435.486 47.813 Q 436.83 47.162 438.7 46.902 A 12.846 12.846 0 0 1 436.597 46.368 Q 434.642 45.678 433.5 44.402 A 5.579 5.579 0 0 1 432.464 42.639 Q 431.848 41.016 431.803 38.587 A 20.939 20.939 0 0 1 431.8 38.202 L 431.8 10.402 Q 431.8 6.263 430.362 4.196 A 5.135 5.135 0 0 0 430.1 3.852 Q 428.689 2.151 425.833 1.861 A 12.235 12.235 0 0 0 424.6 1.802 L 424.6 0.002 A 11.836 11.836 0 0 1 428.407 0.562 Q 433.672 2.349 433.797 9.833 A 22.008 22.008 0 0 1 433.8 10.202 Z M 16.3 0.002 L 16.3 1.802 A 11.099 11.099 0 0 0 14.279 1.973 Q 13.179 2.177 12.329 2.624 A 4.957 4.957 0 0 0 10.8 3.852 Q 9.173 5.813 9.103 10.019 A 22.998 22.998 0 0 0 9.1 10.402 L 9.1 38.202 A 17.222 17.222 0 0 1 8.973 40.374 Q 8.673 42.727 7.664 44.079 A 4.693 4.693 0 0 1 7.4 44.402 Q 5.978 45.991 3.296 46.671 A 14.292 14.292 0 0 1 2.2 46.902 Q 4.64 47.241 6.184 48.245 A 5.759 5.759 0 0 1 7.45 49.352 Q 9.032 51.222 9.097 55.254 A 21.669 21.669 0 0 1 9.1 55.602 L 9.1 83.402 Q 9.1 87.633 10.672 89.737 A 5.358 5.358 0 0 0 10.8 89.902 A 5.223 5.223 0 0 0 13.199 91.54 Q 14.086 91.85 15.181 91.952 A 12.109 12.109 0 0 0 16.3 92.002 L 16.3 93.802 A 11.976 11.976 0 0 1 12.451 93.236 Q 7.102 91.422 7.002 83.796 A 22.324 22.324 0 0 1 7 83.502 L 7 55.202 A 12.685 12.685 0 0 0 6.858 53.23 Q 6.494 50.924 5.2 49.702 A 5.788 5.788 0 0 0 2.918 48.401 Q 2.044 48.126 0.993 48.041 A 12.227 12.227 0 0 0 0 48.002 L 0 45.802 Q 2.425 45.802 4.036 44.937 A 5.416 5.416 0 0 0 5.2 44.102 A 5.081 5.081 0 0 0 6.446 42.171 Q 7 40.71 7 38.602 L 7 10.202 A 16.213 16.213 0 0 1 7.429 6.29 Q 8.998 0.002 16.3 0.002 Z M 132.6 29.902 L 134.9 29.902 L 118.6 81.802 L 115.8 81.802 L 98.6 29.902 L 101 29.902 L 117.1 79.902 L 132.6 29.902 Z M 364.9 29.902 L 367.2 29.902 L 350.9 81.802 L 348.1 81.802 L 330.9 29.902 L 333.3 29.902 L 349.4 79.902 L 364.9 29.902 Z M 410.7 81.202 L 410.2 82.802 A 9.037 9.037 0 0 1 408.125 81.795 A 6.702 6.702 0 0 1 406 79.552 A 8.337 8.337 0 0 1 405.248 77.751 Q 404.714 75.952 404.614 73.375 A 29.824 29.824 0 0 1 404.6 72.902 A 24.992 24.992 0 0 1 402.326 76.528 Q 400.862 78.449 399.152 79.773 A 14.633 14.633 0 0 1 398.35 80.352 Q 394.7 82.802 389.6 82.802 A 16.495 16.495 0 0 1 385.087 82.216 A 12.2 12.2 0 0 1 379.2 78.552 A 14.575 14.575 0 0 1 375.809 71.645 A 20.939 20.939 0 0 1 375.4 67.402 A 19.753 19.753 0 0 1 375.997 62.402 A 13.585 13.585 0 0 1 380.45 55.252 A 17.027 17.027 0 0 1 386.874 51.936 Q 389.35 51.235 392.289 51.06 A 33.825 33.825 0 0 1 394.3 51.002 L 404.4 51.002 L 404.4 44.402 A 26.163 26.163 0 0 0 404.158 40.714 Q 403.584 36.692 401.65 34.302 A 8.442 8.442 0 0 0 397.757 31.65 Q 396.346 31.159 394.609 30.99 A 19.769 19.769 0 0 0 392.7 30.902 Q 386.6 30.902 379.6 34.102 L 378.8 32.302 A 41.017 41.017 0 0 1 385.075 29.985 Q 389.031 28.902 392.7 28.902 Q 406.402 28.902 406.597 43.77 A 32.97 32.97 0 0 1 406.6 44.202 L 406.6 71.602 A 36.588 36.588 0 0 0 406.656 73.702 Q 406.825 76.627 407.5 78.202 A 5.395 5.395 0 0 0 410.349 81.054 A 7.2 7.2 0 0 0 410.7 81.202 Z M 65.2 57.202 L 32.6 57.202 A 51.102 51.102 0 0 0 33.093 63.684 Q 33.559 66.88 34.456 69.473 A 19.159 19.159 0 0 0 37.25 74.852 Q 41.7 80.702 49.1 80.702 A 19.126 19.126 0 0 0 52.548 80.405 A 14.36 14.36 0 0 0 55.95 79.352 Q 58.502 78.184 61.242 75.93 A 36.953 36.953 0 0 0 62.1 75.202 L 63.4 76.702 A 30.788 30.788 0 0 1 60.091 79.337 A 23.099 23.099 0 0 1 56.75 81.252 A 16.636 16.636 0 0 1 51.96 82.617 A 21.379 21.379 0 0 1 49.1 82.802 A 17.611 17.611 0 0 1 42.409 81.574 Q 38.464 79.97 35.626 76.271 A 20.497 20.497 0 0 1 35.35 75.902 Q 30.3 69.002 30.3 56.302 A 56.49 56.49 0 0 1 30.779 48.695 Q 31.305 44.831 32.41 41.67 A 23.754 23.754 0 0 1 35.2 36.052 A 17.434 17.434 0 0 1 39.498 31.591 Q 43.249 28.944 48.239 28.902 A 19.156 19.156 0 0 1 48.4 28.902 A 17.155 17.155 0 0 1 53.908 29.741 A 13.74 13.74 0 0 1 61.1 35.402 Q 64.39 40.375 65.163 48.276 A 52.728 52.728 0 0 1 65.4 53.402 Q 65.4 55.002 65.2 57.202 Z M 219.4 1.702 L 221.5 1.702 L 221.5 91.602 L 219.4 91.602 L 219.4 1.702 Z M 81.4 75.202 L 81.4 8.502 L 83.6 8.202 L 83.6 75.202 A 9.784 9.784 0 0 0 83.717 76.767 Q 83.975 78.355 84.8 79.352 A 3.906 3.906 0 0 0 87.27 80.73 A 5.77 5.77 0 0 0 88.2 80.802 A 7.955 7.955 0 0 0 90.474 80.457 A 10.125 10.125 0 0 0 91.7 80.002 L 92.4 81.802 Q 90.516 82.587 88.939 82.756 A 7.889 7.889 0 0 1 88.1 82.802 A 7.944 7.944 0 0 1 85.978 82.533 A 5.81 5.81 0 0 1 83.2 80.852 Q 81.685 79.21 81.445 76.329 A 13.601 13.601 0 0 1 81.4 75.202 Z M 313.7 75.202 L 313.7 8.502 L 315.9 8.202 L 315.9 75.202 A 9.784 9.784 0 0 0 316.017 76.767 Q 316.275 78.355 317.1 79.352 A 3.906 3.906 0 0 0 319.57 80.73 A 5.77 5.77 0 0 0 320.5 80.802 A 7.955 7.955 0 0 0 322.774 80.457 A 10.125 10.125 0 0 0 324 80.002 L 324.7 81.802 Q 322.816 82.587 321.239 82.756 A 7.889 7.889 0 0 1 320.4 82.802 A 7.944 7.944 0 0 1 318.278 82.533 A 5.81 5.81 0 0 1 315.5 80.852 Q 313.985 79.21 313.745 76.329 A 13.601 13.601 0 0 1 313.7 75.202 Z M 147.7 29.902 L 149.9 29.902 L 149.9 81.802 L 147.7 81.802 L 147.7 29.902 Z M 290.9 29.902 L 293.1 29.902 L 293.1 81.802 L 290.9 81.802 L 290.9 29.902 Z M 32.6 55.302 L 63.1 55.302 A 8.743 8.743 0 0 0 63.144 54.833 Q 63.2 54.031 63.2 52.617 A 74.113 74.113 0 0 0 63.2 52.602 A 44.65 44.65 0 0 0 62.802 46.437 Q 62.368 43.335 61.464 40.782 A 19.93 19.93 0 0 0 59.5 36.702 A 11.862 11.862 0 0 0 50.955 31.081 A 16.234 16.234 0 0 0 48.5 30.902 A 12.952 12.952 0 0 0 38.5 35.361 A 17.982 17.982 0 0 0 37.15 37.052 A 20.725 20.725 0 0 0 34.471 42.501 Q 32.725 47.739 32.6 55.302 Z M 404.4 69.702 L 404.4 53.002 L 394.6 53.002 A 29.48 29.48 0 0 0 389.856 53.358 Q 385.056 54.142 382.1 56.652 A 11.714 11.714 0 0 0 378.308 62.928 Q 377.8 64.961 377.8 67.402 Q 377.8 72.33 379.79 75.584 A 11.022 11.022 0 0 0 380.95 77.152 A 10.339 10.339 0 0 0 387.306 80.532 A 14.9 14.9 0 0 0 389.6 80.702 A 14.28 14.28 0 0 0 401.42 74.801 A 24.732 24.732 0 0 0 404.4 69.702 Z M 149.473 9.501 A 2.189 2.189 0 0 0 148.8 9.402 Q 147.9 9.402 147.35 10.002 Q 146.8 10.602 146.8 11.402 A 2.308 2.308 0 0 0 146.8 11.427 A 1.832 1.832 0 0 0 147.35 12.752 A 1.803 1.803 0 0 0 148.15 13.218 A 2.391 2.391 0 0 0 148.8 13.302 A 2.585 2.585 0 0 0 149.203 13.272 A 1.846 1.846 0 0 0 150.25 12.752 A 1.862 1.862 0 0 0 150.638 12.197 A 1.917 1.917 0 0 0 150.8 11.402 Q 150.8 10.602 150.25 10.002 A 1.776 1.776 0 0 0 149.473 9.501 Z M 292.673 9.501 A 2.189 2.189 0 0 0 292 9.402 Q 291.1 9.402 290.55 10.002 Q 290 10.602 290 11.402 A 2.308 2.308 0 0 0 290 11.427 A 1.832 1.832 0 0 0 290.55 12.752 A 1.803 1.803 0 0 0 291.35 13.218 A 2.391 2.391 0 0 0 292 13.302 A 2.585 2.585 0 0 0 292.403 13.272 A 1.846 1.846 0 0 0 293.45 12.752 A 1.862 1.862 0 0 0 293.838 12.197 A 1.917 1.917 0 0 0 294 11.402 Q 294 10.602 293.45 10.002 A 1.776 1.776 0 0 0 292.673 9.501 Z" vector-effect="non-scaling-stroke"/></g></svg>