<svg width="516.1" height="88.8" viewBox="0 0 516.1 88.8" xmlns="http://www.w3.org/2000/svg"><g id="svgGroup" stroke-linecap="round" fill-rule="evenodd" font-size="9pt" stroke="#65d865" stroke-width="0.25mm" fill="#65d865" style="stroke:#65d865;stroke-width:0.25mm;fill:black"><path d="M 197.1 72.8 L 200.9 65.3 A 18.557 18.557 0 0 0 204.044 67.426 Q 205.598 68.27 207.45 68.95 A 24.073 24.073 0 0 0 215.061 70.387 A 27.464 27.464 0 0 0 215.9 70.4 Q 221.292 70.4 224.135 68.685 A 7.738 7.738 0 0 0 224.35 68.55 Q 227.2 66.7 227.2 63.8 A 7.123 7.123 0 0 0 226.886 61.653 A 6.212 6.212 0 0 0 226.15 60.1 A 6.384 6.384 0 0 0 225.221 59.006 Q 224.207 58.034 222.534 57.081 A 22.3 22.3 0 0 0 222.3 56.95 A 28.462 28.462 0 0 0 220.306 55.957 Q 218.19 54.995 215.201 53.946 A 103.602 103.602 0 0 0 214.2 53.6 A 46.616 46.616 0 0 1 209.802 51.857 Q 207.688 50.883 206.012 49.795 A 19.335 19.335 0 0 1 203.25 47.65 A 11.324 11.324 0 0 1 199.956 41.654 A 16.794 16.794 0 0 1 199.6 38.1 Q 199.6 32.1 204.85 27.95 Q 209.254 24.469 216.508 23.908 A 37.527 37.527 0 0 1 219.4 23.8 A 40.794 40.794 0 0 1 223.846 24.031 Q 226.154 24.284 228.17 24.815 A 25.234 25.234 0 0 1 228.3 24.85 Q 232.2 25.9 235.3 27.5 L 232.8 34.9 Q 230.1 33.3 226.65 32.3 A 25.024 25.024 0 0 0 222.167 31.453 A 31.837 31.837 0 0 0 219 31.3 A 20.632 20.632 0 0 0 216.063 31.495 Q 212.977 31.94 211.1 33.4 A 9.322 9.322 0 0 0 209.742 34.673 Q 209.04 35.492 208.705 36.365 A 4.529 4.529 0 0 0 208.4 38 A 4.921 4.921 0 0 0 209.895 41.552 A 7.082 7.082 0 0 0 210.5 42.1 A 9.88 9.88 0 0 0 211.8 42.969 Q 214.073 44.271 218.498 45.734 A 84.459 84.459 0 0 0 218.7 45.8 A 67.753 67.753 0 0 1 223.762 47.698 Q 229.689 50.217 232.5 53.1 Q 236.4 57.1 236.4 63.1 Q 236.4 69.848 231.149 73.855 A 16.618 16.618 0 0 1 230.75 74.15 Q 226.01 77.547 218.562 78.095 A 40.423 40.423 0 0 1 215.6 78.2 Q 209.7 78.2 204.95 76.7 A 30.883 30.883 0 0 1 201.11 75.215 Q 199.129 74.284 197.548 73.136 A 18.229 18.229 0 0 1 197.1 72.8 Z M 273.9 72.8 L 277.7 65.3 A 18.557 18.557 0 0 0 280.844 67.426 Q 282.398 68.27 284.25 68.95 A 24.073 24.073 0 0 0 291.861 70.387 A 27.464 27.464 0 0 0 292.7 70.4 Q 298.092 70.4 300.935 68.685 A 7.738 7.738 0 0 0 301.15 68.55 Q 304 66.7 304 63.8 A 7.123 7.123 0 0 0 303.686 61.653 A 6.212 6.212 0 0 0 302.95 60.1 A 6.384 6.384 0 0 0 302.021 59.006 Q 301.007 58.034 299.334 57.081 A 22.3 22.3 0 0 0 299.1 56.95 A 28.462 28.462 0 0 0 297.106 55.957 Q 294.99 54.995 292.001 53.946 A 103.602 103.602 0 0 0 291 53.6 A 46.616 46.616 0 0 1 286.602 51.857 Q 284.488 50.883 282.812 49.795 A 19.335 19.335 0 0 1 280.05 47.65 A 11.324 11.324 0 0 1 276.756 41.654 A 16.794 16.794 0 0 1 276.4 38.1 Q 276.4 32.1 281.65 27.95 Q 286.054 24.469 293.308 23.908 A 37.527 37.527 0 0 1 296.2 23.8 A 40.794 40.794 0 0 1 300.646 24.031 Q 302.954 24.284 304.97 24.815 A 25.234 25.234 0 0 1 305.1 24.85 Q 309 25.9 312.1 27.5 L 309.6 34.9 Q 306.9 33.3 303.45 32.3 A 25.024 25.024 0 0 0 298.967 31.453 A 31.837 31.837 0 0 0 295.8 31.3 A 20.632 20.632 0 0 0 292.863 31.495 Q 289.777 31.94 287.9 33.4 A 9.322 9.322 0 0 0 286.542 34.673 Q 285.84 35.492 285.505 36.365 A 4.529 4.529 0 0 0 285.2 38 A 4.921 4.921 0 0 0 286.695 41.552 A 7.082 7.082 0 0 0 287.3 42.1 A 9.88 9.88 0 0 0 288.6 42.969 Q 290.873 44.271 295.298 45.734 A 84.459 84.459 0 0 0 295.5 45.8 A 67.753 67.753 0 0 1 300.562 47.698 Q 306.489 50.217 309.3 53.1 Q 313.2 57.1 313.2 63.1 Q 313.2 69.848 307.949 73.855 A 16.618 16.618 0 0 1 307.55 74.15 Q 302.81 77.547 295.362 78.095 A 40.423 40.423 0 0 1 292.4 78.2 Q 286.5 78.2 281.75 76.7 A 30.883 30.883 0 0 1 277.91 75.215 Q 275.929 74.284 274.348 73.136 A 18.229 18.229 0 0 1 273.9 72.8 Z M 79.4 54.7 L 43 54.7 A 24.088 24.088 0 0 0 44.139 59.725 Q 45.475 63.538 48.1 66.1 Q 52.3 70.2 59.2 70.2 Q 63.7 70.2 67.3 69.25 Q 70.9 68.3 74.2 66.8 L 76.3 74.5 A 40.77 40.77 0 0 1 71.965 76.126 A 51.863 51.863 0 0 1 68.2 77.15 A 38.914 38.914 0 0 1 63.108 77.969 A 52.025 52.025 0 0 1 58.1 78.2 A 28.318 28.318 0 0 1 50.354 77.195 A 21.108 21.108 0 0 1 40.35 71.05 A 23.521 23.521 0 0 1 35.145 61.51 Q 33.8 56.845 33.8 51 A 35.359 35.359 0 0 1 34.633 43.178 A 28.84 28.84 0 0 1 36.75 37.05 A 24.642 24.642 0 0 1 41.766 29.968 A 22.887 22.887 0 0 1 45 27.35 A 21.048 21.048 0 0 1 55.259 23.878 A 26.205 26.205 0 0 1 57.3 23.8 Q 64.8 23.8 69.75 27.05 Q 74.7 30.3 77.2 35.8 A 28.185 28.185 0 0 1 79.626 45.664 A 33.434 33.434 0 0 1 79.7 47.9 A 75.204 75.204 0 0 1 79.409 54.597 A 69.426 69.426 0 0 1 79.4 54.7 Z M 487.5 88.8 L 487.5 83.1 A 21.303 21.303 0 0 0 490.132 82.305 Q 492.144 81.544 493.55 80.45 Q 495.677 78.796 496.687 75.578 A 15.282 15.282 0 0 0 496.8 75.2 A 21.186 21.186 0 0 0 497.349 72.623 Q 497.77 69.893 497.798 66.139 A 72.312 72.312 0 0 0 497.8 65.6 A 82.959 82.959 0 0 1 497.897 61.447 Q 498.098 57.445 498.718 54.736 A 20.307 20.307 0 0 1 498.9 54 A 15.314 15.314 0 0 1 499.846 51.383 Q 500.879 49.214 502.5 47.95 A 13.349 13.349 0 0 1 505.013 46.426 Q 506.838 45.563 509.2 45 Q 505.861 44.205 503.597 42.81 A 12.11 12.11 0 0 1 502.5 42.05 Q 500.352 40.374 499.237 37.074 A 17.638 17.638 0 0 1 498.9 35.95 Q 497.906 32.201 497.81 25.8 A 93.354 93.354 0 0 1 497.8 24.4 Q 497.8 18.3 496.8 14.8 A 12.893 12.893 0 0 0 495.874 12.421 Q 495.136 10.991 494.081 10.003 A 7.633 7.633 0 0 0 493.55 9.55 Q 491.3 7.8 487.5 6.9 L 487.5 1.2 Q 494 1.8 498.2 4.2 A 14.115 14.115 0 0 1 503.738 10.03 A 18.143 18.143 0 0 1 504.45 11.55 A 23.078 23.078 0 0 1 505.679 15.637 Q 506.5 19.548 506.5 24.8 Q 506.5 30.9 507.3 34.45 Q 507.892 37.079 509.198 38.666 A 6.484 6.484 0 0 0 510.2 39.65 A 8.776 8.776 0 0 0 512.319 40.856 Q 513.933 41.515 516.1 41.8 L 516.1 48.2 A 17.55 17.55 0 0 0 513.701 48.676 Q 512.509 49.007 511.55 49.495 A 8.205 8.205 0 0 0 510.2 50.35 A 7.069 7.069 0 0 0 508.38 52.543 Q 507.863 53.484 507.516 54.667 A 14.206 14.206 0 0 0 507.3 55.5 Q 506.577 58.662 506.507 64.026 A 90.153 90.153 0 0 0 506.5 65.2 A 53.658 53.658 0 0 1 506.269 70.348 Q 505.811 75.08 504.45 78.4 A 16.334 16.334 0 0 1 502.008 82.575 A 13.585 13.585 0 0 1 498.2 85.8 Q 494.646 87.831 489.445 88.573 A 39.449 39.449 0 0 1 487.5 88.8 Z M 28.6 83.1 L 28.6 88.8 A 34.552 34.552 0 0 1 23.841 88.036 Q 21.34 87.442 19.277 86.481 A 19.046 19.046 0 0 1 17.95 85.8 A 14.04 14.04 0 0 1 12.344 79.899 A 18.102 18.102 0 0 1 11.65 78.4 A 23.74 23.74 0 0 1 10.401 74.2 Q 9.95 72.02 9.753 69.445 A 55.737 55.737 0 0 1 9.6 65.2 A 77.857 77.857 0 0 0 9.523 61.61 Q 9.37 58.303 8.912 56.023 A 20.09 20.09 0 0 0 8.8 55.5 A 12.402 12.402 0 0 0 8.098 53.315 Q 7.279 51.434 5.9 50.35 A 8.776 8.776 0 0 0 3.781 49.144 Q 2.167 48.485 0 48.2 L 0 41.8 A 17.55 17.55 0 0 0 2.399 41.324 Q 3.591 40.993 4.55 40.505 A 8.205 8.205 0 0 0 5.9 39.65 Q 7.672 38.258 8.518 35.513 A 14.208 14.208 0 0 0 8.8 34.45 Q 9.6 30.9 9.6 24.8 A 54.842 54.842 0 0 1 9.821 19.714 Q 10.273 14.876 11.65 11.55 Q 13.7 6.6 17.95 4.2 Q 21.636 2.119 26.938 1.391 A 39.011 39.011 0 0 1 28.6 1.2 L 28.6 6.9 Q 24.9 7.8 22.6 9.55 A 8.36 8.36 0 0 0 20.375 12.158 Q 19.783 13.214 19.381 14.526 A 14.985 14.985 0 0 0 19.3 14.8 A 21.186 21.186 0 0 0 18.751 17.377 Q 18.33 20.107 18.302 23.861 A 72.312 72.312 0 0 0 18.3 24.4 A 80.646 80.646 0 0 1 18.195 28.658 Q 17.985 32.614 17.355 35.327 A 20.901 20.901 0 0 1 17.2 35.95 A 15.6 15.6 0 0 1 16.278 38.543 Q 15.63 39.935 14.746 40.957 A 8.11 8.11 0 0 1 13.6 42.05 A 13.349 13.349 0 0 1 11.087 43.574 Q 9.263 44.438 6.9 45 Q 10.239 45.795 12.503 47.19 A 12.11 12.11 0 0 1 13.6 47.95 A 8.884 8.884 0 0 1 15.799 50.521 Q 16.665 52.006 17.2 54 Q 18.194 57.704 18.29 64.182 A 95.693 95.693 0 0 1 18.3 65.6 Q 18.3 71.7 19.3 75.2 A 12.575 12.575 0 0 0 20.233 77.579 Q 21.163 79.356 22.6 80.45 Q 24.9 82.2 28.6 83.1 Z M 146.6 77 L 137.2 77 L 116.3 27.4 L 124.5 24 L 142.2 66.8 L 159.9 24 L 167.6 27.4 L 146.6 77 Z M 405.1 77 L 395.7 77 L 374.8 27.4 L 383 24 L 400.7 66.8 L 418.4 24 L 426.1 27.4 L 405.1 77 Z M 468.7 29.2 L 468.7 25 L 476.9 25 L 476.9 64.4 A 12.15 12.15 0 0 0 477.002 66.036 Q 477.334 68.47 478.75 69.35 Q 480.6 70.5 482.8 70.5 L 480.9 77.5 A 17.722 17.722 0 0 1 476.635 77.028 Q 470.998 75.628 469.403 70.08 A 13.59 13.59 0 0 1 469.3 69.7 A 21.307 21.307 0 0 1 466.19 73.126 A 28.498 28.498 0 0 1 463.05 75.55 Q 459.1 78.2 453 78.2 Q 446.5 78.2 441.2 74.9 A 22.947 22.947 0 0 1 433.787 67.373 A 27.923 27.923 0 0 1 432.75 65.55 A 27.228 27.228 0 0 1 430.12 57.608 A 36.644 36.644 0 0 1 429.6 51.3 A 33.142 33.142 0 0 1 430.597 43.031 A 27.968 27.968 0 0 1 432.75 37.3 Q 435.9 31.1 441.45 27.45 A 22.297 22.297 0 0 1 452.645 23.844 A 27.388 27.388 0 0 1 454.2 23.8 A 22.584 22.584 0 0 1 458.994 24.29 A 18.703 18.703 0 0 1 462.35 25.35 A 26.002 26.002 0 0 1 466.637 27.644 A 22.103 22.103 0 0 1 468.7 29.2 Z M 91.2 60.7 L 91.2 3 L 100.2 3 L 100.2 59.8 A 20.644 20.644 0 0 0 100.388 62.688 Q 100.85 65.952 102.45 67.8 A 7.363 7.363 0 0 0 107.034 70.276 A 10.724 10.724 0 0 0 108.7 70.4 Q 110.6 70.4 112.45 69.95 A 22.192 22.192 0 0 0 113.913 69.544 Q 114.848 69.247 115.6 68.9 L 117.8 76.2 Q 116.401 76.822 114.488 77.323 A 34.978 34.978 0 0 1 113.35 77.6 A 23.816 23.816 0 0 1 110.195 78.085 A 30.514 30.514 0 0 1 107.5 78.2 A 20.862 20.862 0 0 1 102.61 77.646 A 17.544 17.544 0 0 1 99.2 76.45 A 12.683 12.683 0 0 1 93.875 71.685 A 15.856 15.856 0 0 1 93.35 70.8 Q 91.616 67.654 91.28 63.012 A 32.105 32.105 0 0 1 91.2 60.7 Z M 349.7 60.7 L 349.7 3 L 358.7 3 L 358.7 59.8 A 20.644 20.644 0 0 0 358.888 62.688 Q 359.35 65.952 360.95 67.8 A 7.363 7.363 0 0 0 365.534 70.276 A 10.724 10.724 0 0 0 367.2 70.4 Q 369.1 70.4 370.95 69.95 A 22.192 22.192 0 0 0 372.413 69.544 Q 373.348 69.247 374.1 68.9 L 376.3 76.2 Q 374.901 76.822 372.988 77.323 A 34.978 34.978 0 0 1 371.85 77.6 A 23.816 23.816 0 0 1 368.695 78.085 A 30.514 30.514 0 0 1 366 78.2 A 20.862 20.862 0 0 1 361.11 77.646 A 17.544 17.544 0 0 1 357.7 76.45 A 12.683 12.683 0 0 1 352.375 71.685 A 15.856 15.856 0 0 1 351.85 70.8 Q 350.116 67.654 349.78 63.012 A 32.105 32.105 0 0 1 349.7 60.7 Z M 259.3 87 L 251.5 87 L 251.5 0 L 259.3 0 L 259.3 87 Z M 185.6 77 L 176.6 77 L 176.6 25 L 185.6 25 L 185.6 77 Z M 334.2 77 L 325.2 77 L 325.2 25 L 334.2 25 L 334.2 77 Z M 467.9 63.7 L 467.9 35.8 Q 465.2 33.9 461.95 32.75 Q 458.7 31.6 455.1 31.6 A 15.924 15.924 0 0 0 450.129 32.354 A 14.024 14.024 0 0 0 446.65 34.05 A 16.301 16.301 0 0 0 441.631 39.474 A 19.962 19.962 0 0 0 440.9 40.85 A 20.663 20.663 0 0 0 439.147 46.527 A 27.678 27.678 0 0 0 438.8 51 Q 438.8 56.6 440.9 60.95 A 17.602 17.602 0 0 0 444.006 65.496 A 15.697 15.697 0 0 0 446.7 67.75 Q 450.4 70.2 455 70.2 Q 458.8 70.2 462.2 68.35 Q 465.6 66.5 467.9 63.7 Z M 42.9 47.4 L 71.4 47.4 A 24.355 24.355 0 0 0 70.996 42.815 Q 70.5 40.231 69.396 38.207 A 12.422 12.422 0 0 0 67.6 35.7 A 12.488 12.488 0 0 0 60.639 31.924 A 18.395 18.395 0 0 0 57.1 31.6 A 13.58 13.58 0 0 0 51.988 32.535 A 12.524 12.524 0 0 0 47.5 35.65 Q 43.7 39.7 42.9 47.4 Z M 176.737 14.288 A 5.973 5.973 0 0 0 181.1 16.1 A 8.175 8.175 0 0 0 182.596 15.969 A 5.647 5.647 0 0 0 185.7 14.35 Q 187.4 12.6 187.4 9.8 A 7.26 7.26 0 0 0 187.4 9.719 A 6.06 6.06 0 0 0 185.55 5.35 A 7.395 7.395 0 0 0 185.492 5.293 A 6.059 6.059 0 0 0 181.1 3.5 A 8.264 8.264 0 0 0 179.444 3.658 A 5.661 5.661 0 0 0 176.5 5.2 A 5.588 5.588 0 0 0 175.029 7.832 A 7.987 7.987 0 0 0 174.8 9.8 A 5.992 5.992 0 0 0 175.292 12.219 A 6.643 6.643 0 0 0 176.65 14.2 A 7.466 7.466 0 0 0 176.737 14.288 Z M 325.337 14.288 A 5.973 5.973 0 0 0 329.7 16.1 A 8.175 8.175 0 0 0 331.196 15.969 A 5.647 5.647 0 0 0 334.3 14.35 Q 336 12.6 336 9.8 A 7.26 7.26 0 0 0 336 9.719 A 6.06 6.06 0 0 0 334.15 5.35 A 7.395 7.395 0 0 0 334.092 5.293 A 6.059 6.059 0 0 0 329.7 3.5 A 8.264 8.264 0 0 0 328.044 3.658 A 5.661 5.661 0 0 0 325.1 5.2 A 5.588 5.588 0 0 0 323.629 7.832 A 7.987 7.987 0 0 0 323.4 9.8 A 5.992 5.992 0 0 0 323.892 12.219 A 6.643 6.643 0 0 0 325.25 14.2 A 7.466 7.466 0 0 0 325.337 14.288 Z" vector-effect="non-scaling-stroke"/></g></svg>