<svg width="173.7" height="93.804" viewBox="0 0 173.7 93.804" xmlns="http://www.w3.org/2000/svg"><g id="svgGroup" stroke-linecap="round" fill-rule="evenodd" font-size="9pt" stroke="#fff" stroke-width="0.25mm" fill="#fff" style="stroke:#fff;stroke-width:0.25mm;fill:black"><path d="M 143.1 34.402 L 141.8 36.002 Q 139.179 33.643 136.673 32.429 A 15.108 15.108 0 0 0 135.95 32.102 Q 133.229 30.956 129.552 30.904 A 24.891 24.891 0 0 0 129.2 30.902 A 15.583 15.583 0 0 0 125.225 31.384 A 11.611 11.611 0 0 0 120.5 33.852 A 9.685 9.685 0 0 0 117.13 40.8 A 13.373 13.373 0 0 0 117.1 41.702 A 10.475 10.475 0 0 0 117.501 44.674 A 8.007 8.007 0 0 0 119.95 48.502 A 14.534 14.534 0 0 0 122.008 49.977 Q 124.878 51.714 129.8 53.402 Q 136.761 55.722 140.14 58.374 A 12.854 12.854 0 0 1 141.15 59.252 Q 144.091 62.103 144.371 67.288 A 20.711 20.711 0 0 1 144.4 68.402 A 15.336 15.336 0 0 1 143.626 73.375 A 12.964 12.964 0 0 1 140.05 78.802 A 14.985 14.985 0 0 1 131.625 82.637 A 20.266 20.266 0 0 1 129 82.802 A 24.946 24.946 0 0 1 124.805 82.467 Q 122.4 82.056 120.396 81.143 A 15.443 15.443 0 0 1 120.2 81.052 Q 116.5 79.302 113.2 76.202 L 114.5 74.802 Q 117.69 77.701 120.833 79.2 A 19.293 19.293 0 0 0 121.05 79.302 Q 123.868 80.603 127.777 80.775 A 27.7 27.7 0 0 0 129 80.802 A 16.675 16.675 0 0 0 133.203 80.298 A 12.312 12.312 0 0 0 138.45 77.502 Q 142.1 74.202 142.1 68.402 A 17.773 17.773 0 0 0 141.945 65.982 Q 141.669 63.975 140.9 62.502 A 8.557 8.557 0 0 0 139.094 60.181 Q 138.26 59.41 137.168 58.741 A 15.177 15.177 0 0 0 136.85 58.552 A 26.638 26.638 0 0 0 134.829 57.506 Q 132.693 56.503 129.702 55.448 A 91.183 91.183 0 0 0 128.7 55.102 A 54.293 54.293 0 0 1 124.825 53.656 Q 120.314 51.758 118.05 49.602 A 9.998 9.998 0 0 1 114.993 43.33 A 13.847 13.847 0 0 1 114.9 41.702 A 12.447 12.447 0 0 1 115.862 36.746 A 11.825 11.825 0 0 1 119 32.502 Q 123.1 28.902 129.1 28.902 Q 133.3 28.902 136.6 30.252 A 20.951 20.951 0 0 1 140.382 32.297 A 27.499 27.499 0 0 1 143.1 34.402 Z M 166.6 10.202 L 166.6 38.602 A 12.685 12.685 0 0 0 166.742 40.573 Q 167.106 42.88 168.4 44.102 A 5.718 5.718 0 0 0 170.584 45.363 Q 171.923 45.802 173.7 45.802 L 173.7 48.002 A 11.495 11.495 0 0 0 171.679 48.168 Q 170.578 48.365 169.712 48.795 A 5.381 5.381 0 0 0 168.4 49.702 A 5.081 5.081 0 0 0 167.154 51.632 Q 166.6 53.094 166.6 55.202 L 166.6 83.502 A 16.794 16.794 0 0 1 166.191 87.389 Q 164.659 93.802 157.4 93.802 L 157.4 92.002 A 10.842 10.842 0 0 0 159.421 91.826 Q 161.691 91.395 162.9 89.902 Q 164.567 87.842 164.599 83.57 A 22.437 22.437 0 0 0 164.6 83.402 L 164.6 55.602 A 17.741 17.741 0 0 1 164.729 53.383 Q 165.061 50.757 166.25 49.352 A 6.109 6.109 0 0 1 168.286 47.813 Q 169.63 47.162 171.5 46.902 A 12.846 12.846 0 0 1 169.397 46.368 Q 167.442 45.678 166.3 44.402 A 5.579 5.579 0 0 1 165.264 42.639 Q 164.648 41.016 164.603 38.587 A 20.939 20.939 0 0 1 164.6 38.202 L 164.6 10.402 Q 164.6 6.263 163.162 4.196 A 5.135 5.135 0 0 0 162.9 3.852 Q 161.489 2.151 158.633 1.861 A 12.235 12.235 0 0 0 157.4 1.802 L 157.4 0.002 A 11.836 11.836 0 0 1 161.207 0.562 Q 166.472 2.349 166.597 9.833 A 22.008 22.008 0 0 1 166.6 10.202 Z M 16.3 0.002 L 16.3 1.802 A 11.099 11.099 0 0 0 14.279 1.973 Q 13.179 2.177 12.329 2.624 A 4.957 4.957 0 0 0 10.8 3.852 Q 9.173 5.813 9.103 10.019 A 22.998 22.998 0 0 0 9.1 10.402 L 9.1 38.202 A 17.222 17.222 0 0 1 8.973 40.374 Q 8.673 42.727 7.664 44.079 A 4.693 4.693 0 0 1 7.4 44.402 Q 5.978 45.991 3.296 46.671 A 14.292 14.292 0 0 1 2.2 46.902 Q 4.64 47.241 6.184 48.245 A 5.759 5.759 0 0 1 7.45 49.352 Q 9.032 51.222 9.097 55.254 A 21.669 21.669 0 0 1 9.1 55.602 L 9.1 83.402 Q 9.1 87.633 10.672 89.737 A 5.358 5.358 0 0 0 10.8 89.902 A 5.223 5.223 0 0 0 13.199 91.54 Q 14.086 91.85 15.181 91.952 A 12.109 12.109 0 0 0 16.3 92.002 L 16.3 93.802 A 11.976 11.976 0 0 1 12.451 93.236 Q 7.102 91.422 7.002 83.796 A 22.324 22.324 0 0 1 7 83.502 L 7 55.202 A 12.685 12.685 0 0 0 6.858 53.23 Q 6.494 50.924 5.2 49.702 A 5.788 5.788 0 0 0 2.918 48.401 Q 2.044 48.126 0.993 48.041 A 12.227 12.227 0 0 0 0 48.002 L 0 45.802 Q 2.425 45.802 4.036 44.937 A 5.416 5.416 0 0 0 5.2 44.102 A 5.081 5.081 0 0 0 6.446 42.171 Q 7 40.71 7 38.602 L 7 10.202 A 16.213 16.213 0 0 1 7.429 6.29 Q 8.998 0.002 16.3 0.002 Z M 65.2 57.202 L 32.6 57.202 A 51.102 51.102 0 0 0 33.093 63.684 Q 33.559 66.88 34.456 69.473 A 19.159 19.159 0 0 0 37.25 74.852 Q 41.7 80.702 49.1 80.702 A 19.126 19.126 0 0 0 52.548 80.405 A 14.36 14.36 0 0 0 55.95 79.352 Q 58.502 78.184 61.242 75.93 A 36.953 36.953 0 0 0 62.1 75.202 L 63.4 76.702 A 30.788 30.788 0 0 1 60.091 79.337 A 23.099 23.099 0 0 1 56.75 81.252 A 16.636 16.636 0 0 1 51.96 82.617 A 21.379 21.379 0 0 1 49.1 82.802 A 17.611 17.611 0 0 1 42.409 81.574 Q 38.464 79.97 35.626 76.271 A 20.497 20.497 0 0 1 35.35 75.902 Q 30.3 69.002 30.3 56.302 A 56.49 56.49 0 0 1 30.779 48.695 Q 31.305 44.831 32.41 41.67 A 23.754 23.754 0 0 1 35.2 36.052 A 17.434 17.434 0 0 1 39.498 31.591 Q 43.249 28.944 48.239 28.902 A 19.156 19.156 0 0 1 48.4 28.902 A 17.155 17.155 0 0 1 53.908 29.741 A 13.74 13.74 0 0 1 61.1 35.402 Q 64.39 40.375 65.163 48.276 A 52.728 52.728 0 0 1 65.4 53.402 Q 65.4 55.002 65.2 57.202 Z M 88.9 1.702 L 91 1.702 L 91 91.602 L 88.9 91.602 L 88.9 1.702 Z M 32.6 55.302 L 63.1 55.302 A 8.743 8.743 0 0 0 63.144 54.833 Q 63.2 54.031 63.2 52.617 A 74.113 74.113 0 0 0 63.2 52.602 A 44.65 44.65 0 0 0 62.802 46.437 Q 62.368 43.335 61.464 40.782 A 19.93 19.93 0 0 0 59.5 36.702 A 11.862 11.862 0 0 0 50.955 31.081 A 16.234 16.234 0 0 0 48.5 30.902 A 12.952 12.952 0 0 0 38.5 35.361 A 17.982 17.982 0 0 0 37.15 37.052 A 20.725 20.725 0 0 0 34.471 42.501 Q 32.725 47.739 32.6 55.302 Z" vector-effect="non-scaling-stroke"/></g></svg>